<?xml version="1.0" encoding="UTF-8"?>
<svg xmlns="http://www.w3.org/2000/svg" viewBox="0 0 189.4 477">
  <defs>
    <style>
      .cls-1 {
        fill: #33251c;
      }

      .cls-1, .cls-2, .cls-3, .cls-4, .cls-5, .cls-6, .cls-7, .cls-8, .cls-9, .cls-10, .cls-11, .cls-12, .cls-13, .cls-14, .cls-15, .cls-16, .cls-17, .cls-18 {
        stroke-width: 0px;
      }

      .cls-2 {
        fill: #5757d3;
      }

      .cls-3 {
        fill: #606060;
      }

      .cls-4 {
        fill: #ffde52;
      }

      .cls-5 {
        fill: #848484;
      }

      .cls-19 {
        isolation: isolate;
      }

      .cls-20 {
        opacity: .49;
      }

      .cls-20, .cls-21, .cls-22, .cls-23 {
        mix-blend-mode: multiply;
      }

      .cls-7 {
        fill: #da291c;
      }

      .cls-8 {
        fill: #2d2d2d;
      }

      .cls-9 {
        fill: #2b2b2b;
      }

      .cls-10 {
        fill: #ffc72c;
      }

      .cls-24 {
        opacity: .15;
      }

      .cls-11 {
        fill: #fff;
      }

      .cls-21, .cls-25 {
        opacity: .25;
      }

      .cls-22 {
        opacity: .35;
      }

      .cls-23 {
        opacity: .3;
      }

      .cls-12 {
        fill: #ffdaa4;
      }

      .cls-13 {
        fill: #4c4c4c;
      }

      .cls-14 {
        fill: #740b0e;
      }

      .cls-15 {
        fill: #b6b6bf;
      }

      .cls-16 {
        fill: #cc9a24;
      }

      .cls-17 {
        fill: #473426;
      }

      .cls-18 {
        fill: #dbb414;
      }
    </style>
  </defs>
  <g class="cls-19">
    <g id="Layer_2" data-name="Layer 2">
      <g id="Layer_1-2" data-name="Layer 1">
        <g>
          <g>
            <path class="cls-14" d="m137.31,120.1l-5.78,84.45c-1.01,14.73-12.73,26.71-28.13,30.04-2.79.6-5.71.92-8.7.92-19.5,0-35.62-13.56-36.81-30.97l-5.78-84.45c-.53-7.71,1.93-14.94,6.49-20.79,6.63-8.56,17.7-14.21,30.32-14.21h11.58c21.25,0,38.13,16.02,36.81,34.99Z"/>
            <g class="cls-21">
              <path class="cls-3" d="m137.31,120.1l-5.78,84.45c-1.01,14.73-12.73,26.71-28.13,30.04.58-19.75,6.09-64.06-4.03-95.96-7.67-24.19-47.12-24.19-47.12-24.19,6.63-8.56,24.05-29.34,36.67-29.34h11.58c21.25,0,38.13,16.02,36.81,34.99Z"/>
            </g>
            <g>
              <path class="cls-12" d="m27.27,136.37h0c-.95-.39-1.41-1.49-1.02-2.44l3.7-8.99c.39-.95,1.49-1.41,2.44-1.02h0c.95.39,1.41,1.49,1.02,2.44l-3.7,8.99c-.39.95-1.49,1.41-2.44,1.02Z"/>
              <path class="cls-12" d="m162.13,136.37h0c.95-.39,1.41-1.49,1.02-2.44l-3.7-8.99c-.39-.95-1.49-1.41-2.44-1.02h0c-.95.39-1.41,1.49-1.02,2.44l3.7,8.99c.39.95,1.49,1.41,2.44,1.02Z"/>
            </g>
            <g>
              <path class="cls-5" d="m3.46,108.91c-.95,0-1.9-.39-2.58-1.16-1.27-1.43-1.14-3.61.29-4.88l10.85-9.64c1.16-1.03,2.86-1.16,4.16-.32l10.67,6.88c1.6,1.03,2.07,3.17,1.03,4.77-1.04,1.6-3.18,2.06-4.77,1.03l-8.47-5.46-8.89,7.9c-.66.58-1.48.87-2.29.87Z"/>
              <path class="cls-5" d="m185.94,108.91c-.81,0-1.63-.28-2.28-.86l-8.98-7.92-8.56,5.48c-1.6,1.03-3.74.56-4.77-1.05-1.03-1.61-.56-3.74,1.05-4.77l10.75-6.88c1.3-.83,2.99-.7,4.15.32l10.93,9.64c1.43,1.26,1.57,3.44.31,4.87-.68.77-1.63,1.17-2.59,1.17Z"/>
            </g>
            <g>
              <path class="cls-6" d="m16.45,133.66h0c-3.03-2.04-3.83-6.19-1.79-9.22l10.6-15.7c2.04-3.03,6.19-3.83,9.22-1.79h0c3.03,2.04,3.83,6.19,1.79,9.22l-10.6,15.7c-2.04,3.03-6.19,3.83-9.22,1.79Z"/>
              <path class="cls-6" d="m172.95,133.66h0c3.03-2.04,3.83-6.19,1.79-9.22l-10.6-15.7c-2.04-3.03-6.19-3.83-9.22-1.79h0c-3.03,2.04-3.83,6.19-1.79,9.22l10.6,15.7c2.04,3.03,6.19,3.83,9.22,1.79Z"/>
            </g>
            <path class="cls-13" d="m94.7,477h0c-9.65,0-17.47-7.82-17.47-17.47v-64.78c0-9.65,7.82-17.47,17.47-17.47h0c9.65,0,17.47,7.82,17.47,17.47v64.78c0,9.65-7.82,17.47-17.47,17.47Z"/>
            <g class="cls-21">
              <path class="cls-3" d="m94.7,456.78h0c-9.65,0-17.47-7.82-17.47-17.47v-64.78c0-9.65,7.82-17.47,17.47-17.47h0c9.65,0,17.47,7.82,17.47,17.47v64.78c0,9.65-7.82,17.47-17.47,17.47Z"/>
            </g>
            <path class="cls-16" d="m146.88,339.3v22.29c0,21.76-13.31,40.38-32.23,48.23v16.51c0,5.48-2.26,10.48-5.87,14.07-3.61,3.64-8.59,5.87-14.09,5.87-.94,0-1.89-.07-2.79-.21-9.67-1.36-17.15-9.72-17.15-19.73v-16.51c-18.92-7.85-32.23-26.48-32.23-48.23v-22.29c0-27.88,21.87-50.67,49.38-52.12.92-.05,1.84-.07,2.79-.07,28.82,0,52.19,23.37,52.19,52.19Z"/>
            <g class="cls-25">
              <path class="cls-11" d="m94.69,446.26c-10.96,0-19.94-8.98-19.94-19.94v-16.51c-25.06-10.4-32.23-30.07-32.23-48.23v-22.29c0-28.82,23.35-52.19,52.17-52.19.94,0,1.86.02,2.81.07-27.51,1.45-49.38,24.24-49.38,52.12v22.29c0,21.76,13.31,40.38,32.23,48.23v16.51c0,16.78,15.31,19.94,14.34,19.94Z"/>
            </g>
            <g class="cls-25">
              <path class="cls-9" d="m94.71,446.26c10.96,0,19.94-8.98,19.94-19.94v-16.51c25.06-10.4,32.23-30.07,32.23-48.23v-22.29c0-28.82-23.35-52.19-52.17-52.19-.94,0-1.86.02-2.81.07,27.51,1.45,49.38,24.24,49.38,52.12v22.29c0,21.76-13.31,40.38-32.23,48.23v16.51c0,15.63-15.31,19.94-14.34,19.94Z"/>
            </g>
            <path class="cls-13" d="m94.7,99.73h0c-9.65,0-17.47-7.82-17.47-17.47V17.47c0-9.65,7.82-17.47,17.47-17.47h0c9.65,0,17.47,7.82,17.47,17.47v64.78c0,9.65-7.82,17.47-17.47,17.47Z"/>
            <g class="cls-21">
              <path class="cls-3" d="m94.7,108.6h0c-9.65,0-17.47-7.82-17.47-17.47v-46.79c0-9.65,7.82-17.47,17.47-17.47h0c9.65,0,17.47,7.82,17.47,17.47v46.79c0,9.65-7.82,17.47-17.47,17.47Z"/>
            </g>
            <path class="cls-10" d="m112.17,51.65v36.65c0,9.65-7.8,17.47-17.47,17.47s-17.47-7.83-17.47-17.47v-36.65c0-9.65,7.83-17.47,17.47-17.47,4.83,0,9.21,1.96,12.36,5.11,3.15,3.18,5.11,7.55,5.11,12.36Z"/>
            <g class="cls-21">
              <path class="cls-3" d="m112.17,63.96v18.33c0,4.82-7.8,8.74-17.47,8.74s-17.47-3.91-17.47-8.74v-18.33c0-4.82,7.83-8.74,17.47-8.74,4.83,0,9.21.98,12.36,2.56,3.15,1.59,5.11,3.78,5.11,6.18Z"/>
            </g>
            <g class="cls-25">
              <path class="cls-11" d="m112.17,51.65v2.23c0-4.81-1.96-9.19-5.11-12.36-3.15-3.15-7.53-5.11-12.36-5.11-9.65,0-17.47,7.83-17.47,17.47v-2.23c0-9.65,7.83-17.47,17.47-17.47,4.83,0,9.21,1.96,12.36,5.11,3.15,3.18,5.11,7.53,5.11,12.36Z"/>
            </g>
            <g class="cls-22">
              <path class="cls-3" d="m94.7,379.09h0c-15.94,0-28.85-12.92-28.85-28.86v-69.68c0-15.94,12.92-28.85,28.85-28.85h0c15.94,0,28.86,12.92,28.86,28.85v69.68c0,15.94-12.92,28.86-28.86,28.86Z"/>
            </g>
            <path class="cls-8" d="m94.7,371.52h0c-15.94,0-28.85-12.92-28.85-28.85v-69.68c0-15.94,12.92-28.85,28.85-28.85h0c15.94,0,28.86,12.92,28.86,28.85v69.68c0,15.94-12.92,28.85-28.86,28.85Z"/>
            <path class="cls-10" d="m158.3,114.43H31.1c-5.02,0-8.15-5-6.61-9.3.25-.69.6-1.34,1.08-1.96,14.46-18.56,40.06-30.9,69.11-30.9s54.68,12.34,69.14,30.9c.48.62.85,1.29,1.08,1.98,1.54,4.31-1.59,9.28-6.61,9.28Z"/>
            <g class="cls-25">
              <path class="cls-11" d="m164.91,109.7c-.23-.69-.6-1.36-1.08-1.98-14.46-18.56-40.06-30.9-69.14-30.9s-54.66,12.34-69.11,30.9c-.48.62-.83,1.27-1.08,1.96-.74-2.07-.48-4.49,1.08-6.49,14.46-18.56,40.06-30.92,69.11-30.92s54.68,12.36,69.14,30.92c1.57,2.03,1.82,4.44,1.08,6.52Z"/>
            </g>
            <g>
              <ellipse class="cls-12" cx="17.33" cy="131.9" rx="12.71" ry="12.83"/>
              <ellipse class="cls-12" cx="172.1" cy="131.9" rx="12.71" ry="12.83"/>
              <g>
                <g class="cls-20">
                  <path class="cls-3" d="m94.69,357.05h0c-15.94,0-28.85-12.92-28.85-28.85v-79.99c0-15.94,12.92-28.86,28.85-28.86h0c15.94,0,28.85,12.92,28.85,28.86v79.99c0,15.94-12.92,28.85-28.85,28.85Z"/>
                </g>
                <circle class="cls-1" cx="94.69" cy="306.79" r="39.38" transform="translate(-109.13 58.71) rotate(-22.25)"/>
                <g>
                  <path class="cls-1" d="m82.23,333.54c-3.62,1.31-7.47,1.46-11.03.67-4.26-.94-8.13-3.24-10.83-6.57-1.03-1.24-1.86-2.61-2.49-4.1l-30.84-72.09c-1.63-3.84-1.7-7.91-.48-11.57,1.64-4.83,5.51-8.95,10.97-10.89,2.74-.99,5.59-1.32,8.37-1.08,6.9.59,13.27,4.72,15.98,11.08l14,32.77,2.49,5.76,14.35,33.56c.56,1.32.93,2.64,1.14,3.98,1.18,7.77-3.44,15.56-11.62,18.48Z"/>
                  <path class="cls-17" d="m93.85,315.06c-1.64,4.83-5.51,8.95-10.97,10.89-7.99,2.85-16.91.21-21.86-5.9-1.03-1.24-1.86-2.61-2.49-4.1l-1.23-2.86-29.6-69.24s-.02-.02-.02-.05c-.54-1.29-.91-2.57-1.1-3.88t-.02-.05c.09-.29.21-.56.33-.85.12-.29.23-.58.37-.85.06-.16.14-.31.23-.47.14-.29.3-.57.47-.86.19-.35.41-.68.64-1.03.21-.33.45-.65.71-.98s.54-.65.85-.99c.23-.28.51-.56.81-.83.28-.3.6-.57.93-.84l.2-.17c.57-.48,1.21-.91,1.87-1.32.32-.2.66-.41,1.02-.58.8-.42,1.66-.8,2.55-1.12,2.74-.99,5.59-1.32,8.37-1.08,6.9.59,13.27,4.72,15.98,11.08l14,32.77c1.01-.68,2.05-1.28,3.12-1.86l2.62,6.09,11.75,27.49c1.63,3.84,1.7,7.91.48,11.57Z"/>
                  <g class="cls-24">
                    <path class="cls-11" d="m56.78,240.45c-3.13-2.83-7.23-4.57-11.54-4.95-2.78-.24-5.62.09-8.37,1.08-4,1.41-7.16,4.03-9.2,7.23-.54-1.29-.91-2.57-1.1-3.88.1-.32.19-.61.31-.9.12-.29.23-.58.37-.85.06-.16.14-.31.23-.47.14-.29.3-.57.47-.86.19-.35.41-.68.64-1.03.21-.33.45-.65.71-.98s.54-.65.85-.99c.23-.28.51-.56.81-.83.28-.3.6-.57.93-.84l.2-.17c.57-.46,1.21-.91,1.87-1.32.32-.2.66-.41,1.02-.58.8-.42,1.66-.8,2.55-1.12,2.74-.99,5.59-1.32,8.37-1.08.53.05,1.03.11,1.53.2,2.89,2.72,5.9,5.27,9.1,7.6l.26,4.74Z"/>
                  </g>
                </g>
                <path class="cls-1" d="m161.37,249.53l-30.06,72.41c-.64,1.52-1.46,2.89-2.49,4.15-2.64,3.33-6.48,5.67-10.74,6.66h-.02c-3.55.83-7.38.71-11.02-.55-8.21-2.84-12.91-10.57-11.79-18.34.19-1.36.55-2.69,1.09-4.01l14-33.71,2.4-5.78,13.66-32.91c2.67-6.39,8.97-10.58,15.87-11.25,2.77-.27,5.65.03,8.4.99,5.48,1.88,9.39,5.96,11.05,10.75,1.28,3.65,1.25,7.72-.36,11.6Z"/>
                <path class="cls-17" d="m161.73,237.93c-.19,1.36-.55,2.69-1.09,4.01l-28.9,69.59-1.16,2.82c-.64,1.52-1.46,2.89-2.49,4.15,0,0,0,.02-.02.03-4.89,6.14-13.76,8.85-21.76,6.08-5.48-1.88-9.39-5.96-11.05-10.75-1.28-3.65-1.25-7.72.36-11.6l11.47-27.61,2.53-6.1c1.07.54,2.12,1.14,3.13,1.8l13.66-32.91c2.67-6.39,8.97-10.58,15.87-11.25,2.77-.27,5.65.03,8.4.99,5.48,1.88,9.39,5.96,11.05,10.75Z"/>
                <path class="cls-17" d="m134.06,299.16c0,1.29-.07,2.56-.18,3.82v.02c-.51,5.23-2,10.11-4.35,14.53,0,0,0,.02-.02.02-2.74,5.2-6.61,9.72-11.3,13.19h-.02c-6.54,4.9-14.67,7.8-23.48,7.8s-16.94-2.9-23.51-7.8c-4.7-3.5-8.59-8.01-11.35-13.24-2.33-4.42-3.82-9.3-4.33-14.5v-.02c-.12-1.27-.18-2.53-.18-3.82,0-12.62,5.94-23.83,15.17-31.03.94-.76,1.93-1.45,2.95-2.12,6.12-3.94,13.42-6.22,21.25-6.22s15.13,2.28,21.25,6.24c1.01.64,2,1.34,2.95,2.09,9.23,7.18,15.17,18.42,15.17,31.03Z"/>
                <path class="cls-2" d="m141.26,233.86v.21l-1.52,10.41c-1.47,5.32-3.98,10.5-7.37,15.22-8.4,11.81-22.03,20.58-37.69,20.58-26.06,0-46.58-24.36-46.58-46.41s20.51-33.45,46.58-33.45,46.57,11.4,46.57,33.45Z"/>
                <g class="cls-24">
                  <path class="cls-11" d="m161.74,238c-.17,1.31-.54,2.6-1.06,3.9-2.06-3.18-5.25-5.76-9.27-7.13-2.75-.96-5.6-1.26-8.38-1-4.15.4-8.1,2.08-11.15,4.78.05-1.44,0-2.85-.13-4.24v-.21c3.17-2.36,6.16-4.94,9.02-7.69.5-.09,1-.17,1.53-.22,2.77-.27,5.62.04,8.38,1,.89.31,1.75.69,2.56,1.09.36.17.71.37,1.03.57.66.4,1.31.85,1.88,1.3l.2.17c.33.27.65.54.94.83.3.27.58.54.82.82.31.34.6.66.86.98.26.32.5.65.72.97.24.35.46.67.65,1.02.17.28.33.57.48.86.08.15.17.31.23.46.14.26.26.55.38.84.12.29.22.58.32.89Z"/>
                </g>
                <path class="cls-7" d="m188.21,148.45c0,1.86-.05,3.73-.14,5.57-2.76,51.76-43.58,92.97-93.38,92.97-14.57,0-28.39-3.55-40.7-9.85-5.53-2.81-10.73-6.19-15.59-10.06C17.15,210.13,2.94,183.83,1.33,154.04c-.09-1.84-.14-3.71-.14-5.59,0-8.84,7.21-16,16.12-16s16.12,7.16,16.12,16c0,36.7,27.49,66.54,61.26,66.54s61.29-29.84,61.29-66.54c0-8.84,7.21-16,16.12-16s16.12,7.16,16.12,16Z"/>
                <g class="cls-23">
                  <path class="cls-3" d="m188.21,148.45c0,54.33-41.95,98.54-93.52,98.54-14.57,0-28.39-3.55-40.7-9.85-5.53-2.81-10.73-6.19-15.59-10.06C15.81,209.07,1.19,180.52,1.19,148.45c0-.69.05-1.36.14-2,1.61,29.79,15.82,56.08,37.07,73.03,4.86,3.87,10.06,7.25,15.59,10.06,12.32,6.31,26.13,9.85,40.7,9.85,49.8,0,90.62-41.21,93.38-92.97.09.67.14,1.34.14,2.03Z"/>
                </g>
                <path class="cls-18" d="m128.35,188.67c0,18.6-15.06,33.68-33.66,33.68s-33.66-15.08-33.66-33.68c0-1.4.09-2.81.28-4.17,2.03-16.6,16.21-29.49,33.38-29.49s31.36,12.89,33.38,29.49c.18,1.36.28,2.76.28,4.17Z"/>
                <g>
                  <path class="cls-4" d="m127.28,181.2c0,1.4-.09,2.81-.27,4.17-1.96-16.6-15.67-29.49-32.32-29.49s-30.36,12.89-32.32,29.49c-.18-1.36-.27-2.76-.27-4.17,0-18.6,14.6-33.66,32.59-33.66s32.59,15.06,32.59,33.66Z"/>
                  <path class="cls-10" d="m128.07,184.5c-2.03,16.6-16.19,29.49-33.38,29.49s-31.36-12.89-33.38-29.49c2.03-16.6,16.21-29.49,33.38-29.49s31.36,12.89,33.38,29.49Z"/>
                </g>
                <path class="cls-7" d="m141.26,233.86l-9.26,64.16c-2.05,12.43-11.65,21.43-22.84,21.43h-28.96c-11.19,0-20.79-9-22.84-21.43l-8.59-59.47-.67-4.7h93.15Z"/>
                <g class="cls-23">
                  <path class="cls-3" d="m141.29,233.86l-.02.16v.05l-1.52,10.41-7.71,53.55c-2.05,12.43-11.65,21.43-22.84,21.43h-5.18c11.19,0,20.79-9,22.84-21.43l5.53-38.33,3.73-25.83h5.18Z"/>
                </g>
              </g>
            </g>
          </g>
          <rect class="cls-8" x="70.6" y="63.02" width="48.2" height="11.22" rx="1.72" ry="1.72"/>
          <rect class="cls-5" x="70.6" y="60.97" width="48.2" height="9.32" rx="1.72" ry="1.72"/>
          <g>
            <path class="cls-15" d="m85.72,68.88h-4.12c-2.18,0-3.96-1.78-3.96-3.96h0c0-2.18,1.78-3.96,3.96-3.96h4.12c2.18,0,3.96,1.78,3.96,3.96h0c0,2.18-1.78,3.96-3.96,3.96Z"/>
            <path class="cls-15" d="m107.81,68.88h-12.04c-2.18,0-3.96-1.78-3.96-3.96h0c0-2.18,1.78-3.96,3.96-3.96h12.04c2.18,0,3.96,1.78,3.96,3.96h0c0,2.18-1.78,3.96-3.96,3.96Z"/>
          </g>
        </g>
      </g>
    </g>
  </g>
</svg>